<svg width="178" height="203" viewBox="0 0 178 203" fill="none" xmlns="http://www.w3.org/2000/svg">
<path d="M177.5 56.5215V186.521L68.5 201.521L0.5 114.021V13.0215L103 0.521484L177.5 56.5215Z" fill="black"/>
<path d="M68.5 201.521V71.5215M68.5 201.521L177.5 186.521V56.5215M68.5 201.521L0.5 114.021V13.0215M68.5 71.5215L177.5 56.5215M68.5 71.5215L0.5 13.0215M177.5 56.5215L103 0.521484L0.5 13.0215" stroke="#323232"/>
<path d="M111.857 110.4C111.857 116.88 105.917 119.52 97.2766 119.52H87.8266L87.8866 100.59H97.0666C106.007 100.59 111.857 103.41 111.857 110.4ZM107.597 110.4C107.747 106.02 103.727 104.55 98.2366 104.55H92.1166V115.5H98.2366C103.397 115.5 107.477 114.18 107.597 110.4ZM127.591 100.62L138.691 119.52H133.861L132.031 116.37H118.111L116.251 119.52H111.391L122.611 100.62H127.591ZM120.271 112.68H129.871L125.431 105.06L125.071 104.46C124.951 104.7 124.801 104.91 124.681 105.15L120.271 112.68ZM148.725 107.97L155.805 100.62H161.535L150.435 112.17V119.52H146.085V112.17L134.805 100.62H140.565L147.825 108C147.975 108.15 148.125 108.3 148.245 108.45C148.425 108.3 148.575 108.12 148.725 107.97ZM127.359 138.62V157.52H123.069V142.4L118.869 143.21L118.839 139.7L123.069 138.62H127.359Z" fill="white"/>
</svg>
