<svg width="101" height="63" viewBox="0 0 101 63" fill="none" xmlns="http://www.w3.org/2000/svg">
<path d="M32.7262 0.675371C33.1138 0.478238 33.7479 0.236515 34.1355 0.140295C34.523 0.0440752 42.0272 -0.0169423 50.8113 0.00417912C66.6981 0.0417283 66.7873 0.0440751 67.7221 0.548643C68.2388 0.827915 69.0162 1.40993 69.4531 1.8394C69.8876 2.27121 70.3738 2.88608 70.5359 3.20994C70.6979 3.53146 71.1724 4.95833 71.5881 6.37816C72.0061 7.79799 72.8517 10.227 73.4694 11.7759C74.0871 13.3248 75.1722 15.7537 75.8839 17.1736C76.5955 18.5934 77.9484 20.9167 78.8902 22.3366C80.1444 24.2258 81.4621 25.7723 83.7943 28.1004C85.5465 29.8511 88.0385 32.0712 89.3303 33.0334C90.6221 33.998 92.999 35.6173 94.6149 36.6334C96.2284 37.6473 97.9735 38.8136 98.4902 39.2243C99.007 39.6327 99.6858 40.4893 99.9958 41.1276C100.414 41.9795 100.559 42.6577 100.548 43.6927C100.536 44.8684 100.179 46.0536 98.394 50.8505C97.2196 54.014 95.9936 56.9968 95.6718 57.4803C95.3477 57.9637 94.6877 58.6208 94.2038 58.94C93.72 59.2592 92.7946 59.6229 92.1487 59.7473C91.3854 59.8952 90.6056 59.8928 89.9174 59.7403C89.335 59.6136 87.9093 58.9963 86.7467 58.3721C85.5841 57.7455 83.4702 56.5251 82.0492 55.6591C80.6283 54.7932 78.4628 53.3945 77.2344 52.552C76.006 51.7118 74.0002 50.2239 72.7718 49.2476C71.5434 48.2713 69.2323 46.1991 67.6352 44.6432C66.0381 43.0872 63.6588 40.4822 62.3506 38.8512C61.0423 37.2225 59.1798 34.641 58.2098 33.1155C57.2421 31.5901 56.0255 29.7056 55.5088 28.9265C54.9286 28.0511 54.1653 27.2602 53.5124 26.8589C52.9299 26.5022 51.873 26.0845 51.1637 25.9319C50.1725 25.7183 49.5712 25.716 48.5801 25.9272C47.8708 26.0798 46.7716 26.5468 46.1398 26.9692C45.3459 27.4972 44.6577 28.267 43.9085 29.4592C43.3119 30.4073 41.9403 32.4655 40.8551 34.0355C39.7724 35.6032 38.0907 37.889 37.116 39.1164C36.1436 40.3414 33.9123 42.7727 32.1579 44.5188C30.4034 46.2625 27.8057 48.6163 26.3847 49.7498C24.9637 50.8834 22.3755 52.7937 20.6304 53.9929C18.8853 55.1945 16.297 56.8701 14.876 57.7173C13.455 58.5669 11.764 59.3906 11.1181 59.5478C10.1786 59.7778 9.68536 59.7731 8.65192 59.5291C7.61379 59.2826 7.12526 58.9893 6.16463 58.0294C5.03725 56.9006 4.83526 56.4946 2.54526 50.7332C0.365656 45.2533 0.109647 44.4507 0.0297902 42.8713C-0.0524148 41.2543 -0.00074309 41.0126 0.656897 39.8791C1.04913 39.2009 1.76784 38.3771 2.25167 38.0462C2.73551 37.7177 4.61213 36.4879 6.42064 35.3169C8.22915 34.1458 10.7141 32.4162 11.9401 31.4751C13.1662 30.5317 15.3082 28.619 16.6986 27.2227C18.0891 25.8263 20.015 23.6273 20.9827 22.3366C21.948 21.0458 23.3619 18.882 24.1229 17.5256C24.8839 16.1691 25.9549 14.057 26.5022 12.8319C27.0494 11.6069 27.9043 9.49474 28.4023 8.13828C28.9002 6.78181 29.4639 5.14607 29.6541 4.5007C29.8632 3.78726 30.3963 2.87669 31.0093 2.18203C31.566 1.55074 32.3387 0.872505 32.7262 0.675371Z" fill="black" fill-opacity="0.99"/>
<rect x="39.8311" y="42.6855" width="20.4292" height="20.315" rx="5" fill="black"/>
</svg>
