<svg width="114" height="32" viewBox="0 0 114 32" fill="none" xmlns="http://www.w3.org/2000/svg">
<path d="M15.8763 1.32764C16.0643 1.232 16.3719 1.11474 16.5599 1.06806C16.7479 1.02138 20.3883 0.991781 24.6497 1.00203C32.3568 1.02024 32.4 1.02138 32.8535 1.26616C33.1042 1.40164 33.4814 1.68399 33.6933 1.89234C33.9041 2.10182 34.1399 2.40011 34.2186 2.55722C34.2972 2.7132 34.5273 3.4054 34.729 4.0942C34.9318 4.78299 35.342 5.96134 35.6417 6.71275C35.9414 7.46416 36.4678 8.64251 36.813 9.33131C37.1582 10.0201 37.8146 11.1472 38.2715 11.836C38.8799 12.7525 39.5191 13.5028 40.6506 14.6322C41.5006 15.4815 42.7095 16.5585 43.3362 17.0253C43.9628 17.4932 45.1159 18.2788 45.8998 18.7718C46.6826 19.2636 47.5292 19.8294 47.7799 20.0287C48.0305 20.2268 48.3598 20.6423 48.5102 20.952C48.7131 21.3653 48.7837 21.6943 48.778 22.1964C48.7723 22.7668 48.5991 23.3417 47.7332 25.6688C47.1635 27.2035 46.5687 28.6505 46.4126 28.8851C46.2553 29.1196 45.9352 29.4384 45.7004 29.5932C45.4657 29.7481 45.0168 29.9245 44.7035 29.9849C44.3331 30.0566 43.9549 30.0555 43.621 29.9815C43.3384 29.92 42.6468 29.6205 42.0828 29.3177C41.5188 29.0137 40.4933 28.4217 39.804 28.0016C39.1146 27.5815 38.0641 26.9029 37.4682 26.4942C36.8723 26.0866 35.8992 25.3648 35.3033 24.8912C34.7074 24.4176 33.5862 23.4123 32.8114 22.6575C32.0366 21.9026 30.8823 20.6389 30.2477 19.8476C29.613 19.0575 28.7095 17.8052 28.2389 17.0651C27.7695 16.3251 27.1793 15.4109 26.9286 15.0329C26.6471 14.6083 26.2768 14.2246 25.9601 14.0299C25.6775 13.8569 25.1648 13.6542 24.8207 13.5802C24.3398 13.4766 24.0481 13.4755 23.5673 13.5779C23.2232 13.6519 22.69 13.8785 22.3835 14.0834C21.9983 14.3396 21.6645 14.713 21.301 15.2914C21.0116 15.7513 20.3462 16.7498 19.8198 17.5114C19.2945 18.272 18.4787 19.3809 18.0058 19.9763C17.5341 20.5706 16.4517 21.7501 15.6005 22.5971C14.7494 23.443 13.4892 24.585 12.7998 25.1349C12.1105 25.6847 10.8548 26.6115 10.0083 27.1933C9.16168 27.7762 7.90604 28.5891 7.2167 29.0001C6.52735 29.4122 5.70697 29.8118 5.39363 29.8881C4.93787 29.9997 4.69859 29.9974 4.19725 29.879C3.69362 29.7594 3.45663 29.6171 2.9906 29.1515C2.44369 28.6039 2.3457 28.4069 1.23477 25.6119C0.177388 22.9535 0.053192 22.5641 0.0144519 21.7979C-0.0254276 21.0135 -0.00036049 20.8962 0.318676 20.3463C0.508958 20.0173 0.857619 19.6177 1.09234 19.4571C1.32706 19.2978 2.23745 18.7012 3.1148 18.1331C3.99215 17.565 5.19765 16.7259 5.79243 16.2693C6.3872 15.8117 7.42635 14.8838 8.10088 14.2064C8.77542 13.529 9.70974 12.4622 10.1792 11.836C10.6475 11.2098 11.3334 10.1601 11.7026 9.50208C12.0717 8.84403 12.5913 7.81938 12.8568 7.22508C13.1223 6.63078 13.537 5.60613 13.7786 4.94807C14.0201 4.29002 14.2936 3.49648 14.3859 3.1834C14.4873 2.83729 14.746 2.39555 15.0433 2.05856C15.3134 1.7523 15.6882 1.42327 15.8763 1.32764Z" fill="black" fill-opacity="0.99"/>
<rect x="19.3232" y="21.707" width="9.91069" height="9.8553" rx="3" fill="black"/>
<path d="M94.5717 0L90 0V3.92837L94.7244 3.92837L98.3798 7.84649H105.538L109.213 3.92837L113.938 3.92837V0L109.213 0L105.303 3.92837L98.6343 3.92837L94.5717 0Z" fill="black"/>
<path d="M94.5922 7.86328H90.0205V11.7917H94.7449L98.4003 15.7098H105.558L109.234 11.7917L113.958 11.7917V7.86328H109.234L105.324 11.7917H98.6548L94.5922 7.86328Z" fill="black"/>
<path d="M94.6127 15.7246H90.041V19.653H94.7654L98.4208 23.5711H105.579L109.254 19.653H113.979V15.7246H109.254L105.345 19.653H98.6753L94.6127 15.7246Z" fill="black"/>
<path d="M94.6342 23.5879H90.0625V27.5163H94.7869L98.4423 31.4344H105.6L109.276 27.5163H114V23.5879H109.276L105.366 27.5163H98.6968L94.6342 23.5879Z" fill="black"/>
<path d="M67.36 18H64.9L67.43 14.71V14.58L64.9 11.3H67.36L68.98 13.47H69.11L70.64 11.3H73.1L70.58 14.62V14.75L73.1 18H70.64L69.03 15.82H68.9L67.36 18Z" fill="black"/>
</svg>
