<svg width="43" height="33" viewBox="0 0 43 33" fill="none" xmlns="http://www.w3.org/2000/svg">
<path d="M0.707383 14.3355C0.254446 14.7882 0 15.4022 0 16.0424C0 16.6826 0.254446 17.2966 0.707383 17.7494L14.3749 31.4075C14.5978 31.638 14.8644 31.822 15.1591 31.9485C15.4539 32.0751 15.7709 32.1417 16.0917 32.1444C16.4125 32.1472 16.7307 32.0861 17.0276 31.9647C17.3245 31.8433 17.5943 31.6641 17.8211 31.4374C18.048 31.2107 18.2274 30.9411 18.3489 30.6444C18.4703 30.3477 18.5315 30.0298 18.5287 29.7092C18.5259 29.3886 18.4593 29.0718 18.3326 28.7772C18.206 28.4827 18.0219 28.2163 17.7912 27.9935L8.24784 18.4568H40.2434C40.8842 18.4568 41.4987 18.2024 41.9518 17.7496C42.4049 17.2968 42.6595 16.6827 42.6595 16.0424C42.6595 15.4021 42.4049 14.788 41.9518 14.3352C41.4987 13.8824 40.8842 13.628 40.2434 13.628H8.24784L17.7912 4.09128C18.2313 3.63593 18.4748 3.02605 18.4693 2.39301C18.4638 1.75998 18.2097 1.15442 17.7618 0.706776C17.3138 0.259132 16.7078 0.00521469 16.0744 -0.000286102C15.4409 -0.0057869 14.8306 0.237568 14.3749 0.677364L0.707383 14.3355Z" fill="white"/>
</svg>
